<svg id="flat" height="512" viewBox="0 0 512 512" width="512" xmlns="http://www.w3.org/2000/svg"><g id="_14_copy_5" data-name="14 copy 5"><g><g fill="#d1e6a1"><path d="m254.924 225.391c.444-.488.907-.948 1.381-1.391a23.995 23.995 0 0 1 17.453 40.137c-.444.489-.907.948-1.381 1.392a24 24 0 0 1 -17.453-40.138z"/><path d="m414.827 236.694c-.05-.658-.067-1.311-.064-1.959a23.995 23.995 0 0 1 41.173 14.847c.05.658.066 1.311.064 1.96a23.995 23.995 0 0 1 -41.173-14.848z"/><path d="m345.373 332.324c.618-.231 1.241-.428 1.865-.606a23.995 23.995 0 0 1 -2.835 43.676c-.618.232-1.241.428-1.865.606a23.995 23.995 0 0 1 2.835-43.676z"/><path d="m158.924 303.863c.444-.489.907-.948 1.381-1.392a24 24 0 0 1 17.453 40.138c-.444.488-.907.948-1.381 1.391a23.995 23.995 0 0 1 -17.453-40.137z"/></g><path d="m488 192-24-48-16 24 16 24-29.2 102.2-82.8-15.253-16-30.947-8 26.526-144-26.526-104-160-8 16 40 88-24 40 40-8 24 48-88 96 24 8 96-96 232 79.368-40 64.632 80-48 32 8v-80l-14.575-2.685z" fill="#d69b80"/><g><path d="m452 120h-4v-4c0-13.255-10.745-20-24-20s-24 6.745-24 20a26.492 26.492 0 0 0 .382 4.382 26.492 26.492 0 0 0 -4.382-.382c-13.255 0-20 10.745-20 24s6.745 24 20 24a26.492 26.492 0 0 0 4.382-.382 26.492 26.492 0 0 0 -.382 4.382c0 13.255 10.745 20 24 20s24-6.745 24-20a26.492 26.492 0 0 0 -.382-4.382 26.492 26.492 0 0 0 4.382.382c13.255 0 20-10.745 20-24s-6.745-24-20-24z" fill="#ff9c8c"/><path d="m442 140.063a16.981 16.981 0 0 0 -6-1.063 17.184 17.184 0 0 0 -6 1.077 16.024 16.024 0 0 0 -5.536 3.459 15.879 15.879 0 0 0 3.473-5.536 16.981 16.981 0 0 0 1.063-6 17.184 17.184 0 0 0 -1.077-6 15.956 15.956 0 0 0 -3.923-6 15.956 15.956 0 0 0 -3.922 6 17.184 17.184 0 0 0 -1.078 6 16.981 16.981 0 0 0 1.062 6 15.879 15.879 0 0 0 3.473 5.537 16.024 16.024 0 0 0 -5.535-3.459 17.184 17.184 0 0 0 -6-1.078 16.981 16.981 0 0 0 -6 1.062 15.852 15.852 0 0 0 -6 3.938 15.852 15.852 0 0 0 6 3.937 16.981 16.981 0 0 0 6 1.063 17.184 17.184 0 0 0 6-1.077 16.024 16.024 0 0 0 5.536-3.459 15.879 15.879 0 0 0 -3.473 5.536 16.981 16.981 0 0 0 -1.063 6 17.184 17.184 0 0 0 1.077 6 15.956 15.956 0 0 0 3.923 6 15.956 15.956 0 0 0 3.922-6 17.184 17.184 0 0 0 1.078-6 16.981 16.981 0 0 0 -1.062-6 15.879 15.879 0 0 0 -3.473-5.537 16.024 16.024 0 0 0 5.535 3.459 17.184 17.184 0 0 0 6 1.078 16.981 16.981 0 0 0 6-1.062 15.852 15.852 0 0 0 6-3.938 15.852 15.852 0 0 0 -6-3.937z" fill="#ffd4cf"/></g><g><g fill="#ff9c8c"><path d="m178.629 196.77 2.829-2.834 2.828 2.834c9.373 9.372 21.74 6.544 31.113-2.829s12.2-21.74 2.828-31.113a26.416 26.416 0 0 0 -3.369-2.828 26.416 26.416 0 0 0 3.369-2.828c9.373-9.373 6.544-21.741-2.828-31.113s-21.741-12.2-31.113-2.829a26.586 26.586 0 0 0 -2.829 3.37 26.5 26.5 0 0 0 -2.828-3.37c-9.373-9.372-21.74-6.544-31.113 2.829s-12.2 21.74-2.828 31.113a26.416 26.416 0 0 0 3.369 2.828 26.416 26.416 0 0 0 -3.369 2.828c-9.373 9.373-6.544 21.741 2.828 31.113s21.74 12.201 31.113 2.829z"/><path d="m104.254 416.424-1.723-3.614 3.617-1.717c11.97-5.693 13.446-18.293 7.753-30.263s-16.4-18.777-28.369-13.084a26.43 26.43 0 0 0 -3.794 2.228 26.387 26.387 0 0 0 -1.537-4.122c-5.693-11.97-18.293-13.446-30.263-7.753s-18.777 16.4-13.084 28.369a26.43 26.43 0 0 0 2.228 3.794 26.387 26.387 0 0 0 -4.122 1.538c-11.97 5.693-13.446 18.293-7.753 30.263s16.4 18.777 28.369 13.084a26.43 26.43 0 0 0 3.794-2.228 26.387 26.387 0 0 0 1.537 4.122c5.693 11.969 18.293 13.445 30.263 7.752s18.777-16.399 13.084-28.369z"/><path d="m400.254 426.468-1.723 3.614 3.617 1.717c11.97 5.693 13.446 18.293 7.753 30.263s-16.4 18.777-28.369 13.084a26.43 26.43 0 0 1 -3.794-2.228 26.387 26.387 0 0 1 -1.537 4.122c-5.693 11.97-18.293 13.446-30.263 7.753s-18.777-16.4-13.084-28.369a26.43 26.43 0 0 1 2.228-3.794 26.387 26.387 0 0 1 -4.122-1.537c-11.97-5.693-13.446-18.293-7.753-30.263s16.4-18.777 28.369-13.084a26.43 26.43 0 0 1 3.794 2.228 26.387 26.387 0 0 1 1.537-4.122c5.693-11.97 18.293-13.446 30.263-7.753s18.777 16.401 13.084 28.369z"/></g><path d="m270.32 379.019 1.3-3.787 3.784 1.306c12.534 4.312 22.408-3.655 26.72-16.188s1.43-24.889-11.1-29.2a26.361 26.361 0 0 0 -4.269-1.064 26.459 26.459 0 0 0 1.788-4.02c4.312-12.534-3.655-22.408-16.188-26.72s-24.889-1.429-29.2 11.1a26.375 26.375 0 0 0 -1.064 4.268 26.355 26.355 0 0 0 -4.02-1.787c-12.534-4.312-22.408 3.654-26.72 16.188s-1.429 24.889 11.1 29.2a26.585 26.585 0 0 0 4.268 1.064 26.344 26.344 0 0 0 -1.787 4.019c-4.312 12.534 3.654 22.408 16.188 26.72s24.888 1.435 29.2-11.099z" fill="#ffc794"/><path d="m63.714 103.312 2.829-2.834 2.828 2.834c9.373 9.373 21.74 6.544 31.113-2.828s12.2-21.74 2.828-31.113a26.506 26.506 0 0 0 -3.369-2.829 26.416 26.416 0 0 0 3.369-2.828c9.373-9.373 6.544-21.74-2.828-31.113s-21.741-12.201-31.113-2.828a26.506 26.506 0 0 0 -2.829 3.369 26.416 26.416 0 0 0 -2.828-3.369c-9.373-9.373-21.74-6.544-31.114 2.827s-12.2 21.74-2.828 31.113a26.416 26.416 0 0 0 3.369 2.828 26.506 26.506 0 0 0 -3.369 2.829c-9.373 9.373-6.544 21.74 2.828 31.113s21.741 12.202 31.114 2.829z" fill="#ffc794"/><path d="m100.007 249.981a17.606 17.606 0 0 1 -2.276 1.849 17.564 17.564 0 0 1 2.215 1.922c6.146 6.349 4.126 14.562-2.224 20.708s-14.624 7.9-20.769 1.547a17.523 17.523 0 0 1 -1.849-2.276 17.564 17.564 0 0 1 -1.922 2.215c-6.349 6.146-14.563 4.126-20.708-2.224s-7.9-14.624-1.548-20.769a17.6 17.6 0 0 1 2.274-1.853 17.564 17.564 0 0 1 -2.215-1.922c-6.146-6.349-4.126-14.563 2.223-20.708s14.624-7.9 20.77-1.548a17.684 17.684 0 0 1 1.852 2.278 17.564 17.564 0 0 1 1.922-2.215c6.349-6.146 14.562-4.126 20.708 2.223s7.897 14.627 1.547 20.773z" fill="#ffc794"/><path d="m193.478 164.95a17 17 0 0 0 -4.994-3.491 15.894 15.894 0 0 0 -6.372-1.46 16.03 16.03 0 0 0 6.362-1.468 17.21 17.21 0 0 0 5-3.481 17 17 0 0 0 3.491-4.994 15.834 15.834 0 0 0 1.459-7.027 15.846 15.846 0 0 0 -7.026 1.46 16.947 16.947 0 0 0 -4.994 3.491 17.178 17.178 0 0 0 -3.481 5 16.008 16.008 0 0 0 -1.468 6.361 15.888 15.888 0 0 0 -1.455-6.367 16.947 16.947 0 0 0 -3.491-4.994 17.178 17.178 0 0 0 -5-3.481 15.966 15.966 0 0 0 -7.016-1.47 15.954 15.954 0 0 0 1.469 7.017 17.224 17.224 0 0 0 3.481 5 17 17 0 0 0 4.994 3.491 15.894 15.894 0 0 0 6.363 1.463 16.03 16.03 0 0 0 -6.362 1.468 17.224 17.224 0 0 0 -5 3.481 17 17 0 0 0 -3.491 4.994 15.834 15.834 0 0 0 -1.459 7.027 15.846 15.846 0 0 0 7.026-1.46 16.947 16.947 0 0 0 4.994-3.491 17.178 17.178 0 0 0 3.481-5 16.008 16.008 0 0 0 1.468-6.361 15.888 15.888 0 0 0 1.461 6.371 16.947 16.947 0 0 0 3.491 4.994 17.178 17.178 0 0 0 5 3.481 15.966 15.966 0 0 0 7.016 1.47 15.968 15.968 0 0 0 -1.469-7.017 17.224 17.224 0 0 0 -3.478-5.007z" fill="#ffd4cf"/></g><path d="m85.124 390.173a17.189 17.189 0 0 0 -5.88 1.6 16.988 16.988 0 0 0 -4.962 3.537 15.875 15.875 0 0 0 -3.509 5.514 16.042 16.042 0 0 0 .746-6.485 17.2 17.2 0 0 0 -1.605-5.881 16.979 16.979 0 0 0 -3.536-4.962 15.853 15.853 0 0 0 -6.132-3.728 15.834 15.834 0 0 0 -.978 7.11 17 17 0 0 0 1.617 5.874 17.2 17.2 0 0 0 3.55 4.956 16.025 16.025 0 0 0 5.5 3.514 15.883 15.883 0 0 0 -6.492-.758 16.994 16.994 0 0 0 -5.875 1.617 17.214 17.214 0 0 0 -4.956 3.55 15.974 15.974 0 0 0 -3.734 6.119 15.969 15.969 0 0 0 7.1.965 17.188 17.188 0 0 0 5.881-1.6 16.988 16.988 0 0 0 4.962-3.537 15.9 15.9 0 0 0 3.51-5.514 16.027 16.027 0 0 0 -.747 6.485 17.217 17.217 0 0 0 1.6 5.881 16.988 16.988 0 0 0 3.537 4.962 15.853 15.853 0 0 0 6.132 3.728 15.834 15.834 0 0 0 .978-7.11 17 17 0 0 0 -1.617-5.874 17.2 17.2 0 0 0 -3.55-4.956 16.025 16.025 0 0 0 -5.5-3.514 15.883 15.883 0 0 0 6.492.758 17 17 0 0 0 5.875-1.617 17.214 17.214 0 0 0 4.956-3.55 15.96 15.96 0 0 0 3.733-6.119 15.966 15.966 0 0 0 -7.096-.965z" fill="#ffd4cf"/><path d="m384.494 445.635a17.214 17.214 0 0 0 -4.956-3.55 17 17 0 0 0 -5.875-1.617 15.883 15.883 0 0 0 -6.492.758 16.025 16.025 0 0 0 5.5-3.514 17.214 17.214 0 0 0 3.55-4.956 16.989 16.989 0 0 0 1.617-5.874 15.828 15.828 0 0 0 -.978-7.109 15.84 15.84 0 0 0 -6.132 3.727 17 17 0 0 0 -3.537 4.962 17.223 17.223 0 0 0 -1.6 5.881 16.042 16.042 0 0 0 .746 6.485 15.884 15.884 0 0 0 -3.509-5.514 16.988 16.988 0 0 0 -4.962-3.537 17.189 17.189 0 0 0 -5.88-1.6 15.972 15.972 0 0 0 -7.1.965 15.974 15.974 0 0 0 3.734 6.119 17.214 17.214 0 0 0 4.956 3.55 16.994 16.994 0 0 0 5.875 1.617 15.883 15.883 0 0 0 6.492-.758 16.025 16.025 0 0 0 -5.5 3.514 17.2 17.2 0 0 0 -3.55 4.956 17 17 0 0 0 -1.617 5.874 15.834 15.834 0 0 0 .978 7.11 15.853 15.853 0 0 0 6.132-3.728 16.988 16.988 0 0 0 3.537-4.962 17.217 17.217 0 0 0 1.6-5.881 16.031 16.031 0 0 0 -.747-6.486 15.909 15.909 0 0 0 3.509 5.515 17.006 17.006 0 0 0 4.963 3.537 17.188 17.188 0 0 0 5.881 1.6 15.969 15.969 0 0 0 7.1-.965 15.974 15.974 0 0 0 -3.735-6.119z" fill="#ffd4cf"/><path d="m275.031 346.881a17.18 17.18 0 0 0 -5.323-2.97 16.994 16.994 0 0 0 -6.02-.947 15.886 15.886 0 0 0 -6.365 1.482 16.025 16.025 0 0 0 5.072-4.109 17.185 17.185 0 0 0 2.97-5.324 16.966 16.966 0 0 0 .947-6.019 15.836 15.836 0 0 0 -1.77-6.954 15.825 15.825 0 0 0 -5.674 4.393 16.968 16.968 0 0 0 -2.957 5.328 17.2 17.2 0 0 0 -.934 6.024 16.025 16.025 0 0 0 1.471 6.36 15.9 15.9 0 0 0 -4.107-5.085 16.968 16.968 0 0 0 -5.328-2.957 17.177 17.177 0 0 0 -6.024-.933 15.949 15.949 0 0 0 -6.949 1.757 15.962 15.962 0 0 0 4.4 5.66 17.208 17.208 0 0 0 5.324 2.971 16.989 16.989 0 0 0 6.019.947 15.9 15.9 0 0 0 6.366-1.482 16.027 16.027 0 0 0 -5.073 4.109 17.2 17.2 0 0 0 -2.97 5.323 16.992 16.992 0 0 0 -.947 6.019 15.829 15.829 0 0 0 1.771 6.955 15.847 15.847 0 0 0 5.674-4.393 17.019 17.019 0 0 0 2.957-5.328 17.208 17.208 0 0 0 .933-6.024 16.023 16.023 0 0 0 -1.47-6.361 15.9 15.9 0 0 0 4.106 5.086 16.985 16.985 0 0 0 5.328 2.956 17.208 17.208 0 0 0 6.024.934 15.953 15.953 0 0 0 6.95-1.757 15.968 15.968 0 0 0 -4.401-5.661z" fill="#ffe2c7"/><path d="m78.563 71.493a16.978 16.978 0 0 0 -4.994-3.493 15.86 15.86 0 0 0 -6.372-1.46 16.029 16.029 0 0 0 6.362-1.469 17.2 17.2 0 0 0 5-3.481 16.984 16.984 0 0 0 3.495-4.99 15.832 15.832 0 0 0 1.459-7.026 15.832 15.832 0 0 0 -7.026 1.459 16.984 16.984 0 0 0 -4.994 3.491 17.191 17.191 0 0 0 -3.481 5 16.013 16.013 0 0 0 -1.468 6.362 15.893 15.893 0 0 0 -1.461-6.372 16.96 16.96 0 0 0 -3.491-4.994 17.2 17.2 0 0 0 -5-3.481 15.952 15.952 0 0 0 -7.016-1.469 15.966 15.966 0 0 0 1.469 7.016 17.2 17.2 0 0 0 3.481 5 16.96 16.96 0 0 0 4.994 3.491 15.877 15.877 0 0 0 6.372 1.46 16.029 16.029 0 0 0 -6.362 1.469 17.191 17.191 0 0 0 -5 3.481 16.984 16.984 0 0 0 -3.491 4.994 15.832 15.832 0 0 0 -1.459 7.026 15.832 15.832 0 0 0 7.02-1.453 16.984 16.984 0 0 0 4.994-3.491 17.2 17.2 0 0 0 3.481-5 16.013 16.013 0 0 0 1.466-6.363 15.893 15.893 0 0 0 1.459 6.369 16.96 16.96 0 0 0 3.491 4.994 17.2 17.2 0 0 0 5 3.481 15.952 15.952 0 0 0 7.016 1.469 15.952 15.952 0 0 0 -1.463-7.013 17.2 17.2 0 0 0 -3.481-5.007z" fill="#ffe2c7"/><g><path d="m360.286 228.953a17.6 17.6 0 0 0 -2.277-1.849 17.564 17.564 0 0 0 2.215-1.922c6.146-6.349 4.126-14.563-2.223-20.708s-14.624-7.9-20.77-1.548a17.684 17.684 0 0 0 -1.849 2.277 17.564 17.564 0 0 0 -1.922-2.215c-6.349-6.146-14.562-4.126-20.708 2.223s-7.9 14.624-1.547 20.77a17.606 17.606 0 0 0 2.276 1.849 17.564 17.564 0 0 0 -2.215 1.922c-6.146 6.349-4.126 14.562 2.224 20.708s14.624 7.9 20.769 1.547a17.523 17.523 0 0 0 1.849-2.276 17.564 17.564 0 0 0 1.922 2.215c6.349 6.146 14.563 4.126 20.708-2.224s7.897-14.622 1.548-20.769z" fill="#ff9c8c"/><g><path d="m329.997 221.903 11.496 11.128" fill="#fff"/><path d="m330 221.9a11.355 11.355 0 0 1 5.6-.036 8.154 8.154 0 0 1 3.623 2.008 8.042 8.042 0 0 1 2.135 3.545 11.284 11.284 0 0 1 .136 5.611 11.293 11.293 0 0 1 -5.612.046 8.049 8.049 0 0 1 -3.613-2.018 8.156 8.156 0 0 1 -2.125-3.556 11.358 11.358 0 0 1 -.144-5.6z" fill="#ffd4cf"/></g></g><g><path d="m69.719 257.031 11.496-11.128" fill="#fff"/><path d="m69.719 257.031a11.351 11.351 0 0 1 .146-5.6 8.152 8.152 0 0 1 2.125-3.555 8.045 8.045 0 0 1 3.613-2.019 11.3 11.3 0 0 1 5.612.047 11.3 11.3 0 0 1 -.136 5.611 8.051 8.051 0 0 1 -2.135 3.545 8.154 8.154 0 0 1 -3.623 2.008 11.356 11.356 0 0 1 -5.602-.037z" fill="#ffe2c7"/></g></g></g></svg>